<?xml version="1.0" encoding="UTF-8" standalone="no"?>
<!DOCTYPE svg PUBLIC "-//W3C//DTD SVG 1.1//EN" "http://www.w3.org/Graphics/SVG/1.1/DTD/svg11.dtd">
<!-- Created with Vectornator (http://vectornator.io/) -->
<svg height="260.0pt" stroke-miterlimit="10" style="fill-rule:nonzero;clip-rule:evenodd;stroke-linecap:round;stroke-linejoin:round;" version="1.1" viewBox="0 0 260 260" width="260.0pt" xml:space="preserve" xmlns="http://www.w3.org/2000/svg" xmlns:xlink="http://www.w3.org/1999/xlink">
<defs/>
<g id="Layer-1">
<path d="M10.8834 26.5156C10.8834 55.1375 10.8834 55.1124 10.8834 83.7344C13.3833 83.7344 12.946 83.7031 15.4459 83.7031C15.4459 65.8555 20.9868 41.1334 44.0084 37.9844C54.5086 36.5481 65.1605 37.5668 75.7584 37.5781C94.1423 37.5978 91.8668 36.6147 96.2584 41.3906C97.9584 43.2394 98.8969 45.8851 99.0709 48.3906C100.022 62.0832 99.6544 75.8214 99.6022 89.5469C99.4428 131.428 99.7431 173.342 98.4147 215.203C97.9947 228.436 73.7494 228.47 66.5084 229.266C66.5084 231.382 66.5084 231.368 66.5084 233.484C112.862 233.484 112.873 233.484 159.227 233.484C159.227 231.368 159.227 231.382 159.227 229.266C151.699 228.283 128.308 227.885 128.165 214.422C127.555 157.217 127.063 99.9721 129.008 42.7969C129.122 39.4483 139.866 37.6275 141.071 37.5781C155.889 36.971 170.74 37.0123 185.571 37.0156C200.4 37.0189 215.227 36.8988 230.04 37.5781C231.662 37.6525 233.293 38.3492 234.633 39.2656C237.415 41.168 238.036 48.8198 238.321 56.7344C238.633 65.3903 238.268 74.3398 233.383 76.3906C212.822 85.0233 187.845 68.9812 169.696 83.7031C161.771 90.1316 154.973 99.5552 154.321 110.203C152.974 132.207 154.321 154.283 154.321 176.328C178.227 152.958 202.582 130.055 226.04 106.234C235.204 96.9279 246.423 83.6263 248.227 69.7656C250.089 55.4648 248.433 40.9367 248.54 26.5156C129.72 26.5156 129.703 26.5156 10.8834 26.5156ZM192.196 87.2344C203.324 86.7081 214.818 89.8484 228.883 88.9531C207.809 111.564 185.768 133.25 163.915 155.109C163.841 144.816 163.637 134.496 163.696 124.203C163.862 95.1369 176.643 87.97 192.196 87.2344Z" fill="#131313" fill-rule="nonzero" opacity="1" stroke="none"/>
</g>
</svg>
